<?xml version="1.0" encoding="utf-8"?>
<!-- Generator: Adobe Illustrator 20.0.0, SVG Export Plug-In . SVG Version: 6.00 Build 0)  -->
<svg version="1.1" id="图层_1" xmlns="http://www.w3.org/2000/svg" xmlns:xlink="http://www.w3.org/1999/xlink" x="0px" y="0px"
	 viewBox="0 0 1080 720" style="enable-background:new 0 0 1080 720;" xml:space="preserve">
<style type="text/css">
	.st0{opacity:0.4;}
	.st1{fill:none;stroke:#3E6D97;stroke-miterlimit:10;}
	.st2{fill:none;stroke:#3E6D97;stroke-miterlimit:10;stroke-dasharray:11.9108,3.9703;}
	.st3{fill:none;stroke:#3E6D97;stroke-miterlimit:10;stroke-dasharray:12,4;}
</style>
<g class="st0">
	<g>
		<g>
			<polyline class="st1" points="0,714 0,720 6,720 			"/>
			<line class="st2" x1="10" y1="720" x2="1072" y2="720"/>
			<polyline class="st1" points="1074,720 1080,720 1080,714 			"/>
			<line class="st3" x1="1080" y1="710" x2="1080" y2="8"/>
			<polyline class="st1" points="1080,6 1080,0 1074,0 			"/>
			<line class="st2" x1="1070" y1="0" x2="8" y2="0"/>
			<polyline class="st1" points="6,0 0,0 0,6 			"/>
			<line class="st3" x1="0" y1="10" x2="0" y2="712"/>
		</g>
	</g>
	<g>
		<g>
			<line class="st1" x1="0" y1="19.5" x2="6" y2="19.5"/>
			<line class="st2" x1="10" y1="19.5" x2="1072" y2="19.5"/>
			<line class="st1" x1="1074" y1="19.5" x2="1080" y2="19.5"/>
		</g>
	</g>
	<g>
		<g>
			<line class="st1" x1="0" y1="38.9" x2="6" y2="38.9"/>
			<line class="st2" x1="10" y1="38.9" x2="1072" y2="38.9"/>
			<line class="st1" x1="1074" y1="38.9" x2="1080" y2="38.9"/>
		</g>
	</g>
	<g>
		<g>
			<line class="st1" x1="0" y1="58.4" x2="6" y2="58.4"/>
			<line class="st2" x1="10" y1="58.4" x2="1072" y2="58.4"/>
			<line class="st1" x1="1074" y1="58.4" x2="1080" y2="58.4"/>
		</g>
	</g>
	<g>
		<g>
			<line class="st1" x1="0" y1="77.8" x2="6" y2="77.8"/>
			<line class="st2" x1="10" y1="77.8" x2="1072" y2="77.8"/>
			<line class="st1" x1="1074" y1="77.8" x2="1080" y2="77.8"/>
		</g>
	</g>
	<g>
		<g>
			<line class="st1" x1="0" y1="97.3" x2="6" y2="97.3"/>
			<line class="st2" x1="10" y1="97.3" x2="1072" y2="97.3"/>
			<line class="st1" x1="1074" y1="97.3" x2="1080" y2="97.3"/>
		</g>
	</g>
	<g>
		<g>
			<line class="st1" x1="0" y1="116.8" x2="6" y2="116.8"/>
			<line class="st2" x1="10" y1="116.8" x2="1072" y2="116.8"/>
			<line class="st1" x1="1074" y1="116.8" x2="1080" y2="116.8"/>
		</g>
	</g>
	<g>
		<g>
			<line class="st1" x1="0" y1="136.2" x2="6" y2="136.2"/>
			<line class="st2" x1="10" y1="136.2" x2="1072" y2="136.2"/>
			<line class="st1" x1="1074" y1="136.2" x2="1080" y2="136.2"/>
		</g>
	</g>
	<g>
		<g>
			<line class="st1" x1="0" y1="155.7" x2="6" y2="155.7"/>
			<line class="st2" x1="10" y1="155.7" x2="1072" y2="155.7"/>
			<line class="st1" x1="1074" y1="155.7" x2="1080" y2="155.7"/>
		</g>
	</g>
	<g>
		<g>
			<line class="st1" x1="0" y1="175.1" x2="6" y2="175.1"/>
			<line class="st2" x1="10" y1="175.1" x2="1072" y2="175.1"/>
			<line class="st1" x1="1074" y1="175.1" x2="1080" y2="175.1"/>
		</g>
	</g>
	<g>
		<g>
			<line class="st1" x1="0" y1="194.6" x2="6" y2="194.6"/>
			<line class="st2" x1="10" y1="194.6" x2="1072" y2="194.6"/>
			<line class="st1" x1="1074" y1="194.6" x2="1080" y2="194.6"/>
		</g>
	</g>
	<g>
		<g>
			<line class="st1" x1="0" y1="214.1" x2="6" y2="214.1"/>
			<line class="st2" x1="10" y1="214.1" x2="1072" y2="214.1"/>
			<line class="st1" x1="1074" y1="214.1" x2="1080" y2="214.1"/>
		</g>
	</g>
	<g>
		<g>
			<line class="st1" x1="0" y1="233.5" x2="6" y2="233.5"/>
			<line class="st2" x1="10" y1="233.5" x2="1072" y2="233.5"/>
			<line class="st1" x1="1074" y1="233.5" x2="1080" y2="233.5"/>
		</g>
	</g>
	<g>
		<g>
			<line class="st1" x1="0" y1="253" x2="6" y2="253"/>
			<line class="st2" x1="10" y1="253" x2="1072" y2="253"/>
			<line class="st1" x1="1074" y1="253" x2="1080" y2="253"/>
		</g>
	</g>
	<g>
		<g>
			<line class="st1" x1="0" y1="272.4" x2="6" y2="272.4"/>
			<line class="st2" x1="10" y1="272.4" x2="1072" y2="272.4"/>
			<line class="st1" x1="1074" y1="272.4" x2="1080" y2="272.4"/>
		</g>
	</g>
	<g>
		<g>
			<line class="st1" x1="0" y1="291.9" x2="6" y2="291.9"/>
			<line class="st2" x1="10" y1="291.9" x2="1072" y2="291.9"/>
			<line class="st1" x1="1074" y1="291.9" x2="1080" y2="291.9"/>
		</g>
	</g>
	<g>
		<g>
			<line class="st1" x1="0" y1="311.4" x2="6" y2="311.4"/>
			<line class="st2" x1="10" y1="311.4" x2="1072" y2="311.4"/>
			<line class="st1" x1="1074" y1="311.4" x2="1080" y2="311.4"/>
		</g>
	</g>
	<g>
		<g>
			<line class="st1" x1="0" y1="330.8" x2="6" y2="330.8"/>
			<line class="st2" x1="10" y1="330.8" x2="1072" y2="330.8"/>
			<line class="st1" x1="1074" y1="330.8" x2="1080" y2="330.8"/>
		</g>
	</g>
	<g>
		<g>
			<line class="st1" x1="0" y1="350.3" x2="6" y2="350.3"/>
			<line class="st2" x1="10" y1="350.3" x2="1072" y2="350.3"/>
			<line class="st1" x1="1074" y1="350.3" x2="1080" y2="350.3"/>
		</g>
	</g>
	<g>
		<g>
			<line class="st1" x1="0" y1="369.7" x2="6" y2="369.7"/>
			<line class="st2" x1="10" y1="369.7" x2="1072" y2="369.7"/>
			<line class="st1" x1="1074" y1="369.7" x2="1080" y2="369.7"/>
		</g>
	</g>
	<g>
		<g>
			<line class="st1" x1="0" y1="389.2" x2="6" y2="389.2"/>
			<line class="st2" x1="10" y1="389.2" x2="1072" y2="389.2"/>
			<line class="st1" x1="1074" y1="389.2" x2="1080" y2="389.2"/>
		</g>
	</g>
	<g>
		<g>
			<line class="st1" x1="0" y1="408.6" x2="6" y2="408.6"/>
			<line class="st2" x1="10" y1="408.6" x2="1072" y2="408.6"/>
			<line class="st1" x1="1074" y1="408.6" x2="1080" y2="408.6"/>
		</g>
	</g>
	<g>
		<g>
			<line class="st1" x1="0" y1="428.1" x2="6" y2="428.1"/>
			<line class="st2" x1="10" y1="428.1" x2="1072" y2="428.1"/>
			<line class="st1" x1="1074" y1="428.1" x2="1080" y2="428.1"/>
		</g>
	</g>
	<g>
		<g>
			<line class="st1" x1="0" y1="447.6" x2="6" y2="447.6"/>
			<line class="st2" x1="10" y1="447.6" x2="1072" y2="447.6"/>
			<line class="st1" x1="1074" y1="447.6" x2="1080" y2="447.6"/>
		</g>
	</g>
	<g>
		<g>
			<line class="st1" x1="0" y1="467" x2="6" y2="467"/>
			<line class="st2" x1="10" y1="467" x2="1072" y2="467"/>
			<line class="st1" x1="1074" y1="467" x2="1080" y2="467"/>
		</g>
	</g>
	<g>
		<g>
			<line class="st1" x1="0" y1="486.5" x2="6" y2="486.5"/>
			<line class="st2" x1="10" y1="486.5" x2="1072" y2="486.5"/>
			<line class="st1" x1="1074" y1="486.5" x2="1080" y2="486.5"/>
		</g>
	</g>
	<g>
		<g>
			<line class="st1" x1="0" y1="505.9" x2="6" y2="505.9"/>
			<line class="st2" x1="10" y1="505.9" x2="1072" y2="505.9"/>
			<line class="st1" x1="1074" y1="505.9" x2="1080" y2="505.9"/>
		</g>
	</g>
	<g>
		<g>
			<line class="st1" x1="0" y1="525.4" x2="6" y2="525.4"/>
			<line class="st2" x1="10" y1="525.4" x2="1072" y2="525.4"/>
			<line class="st1" x1="1074" y1="525.4" x2="1080" y2="525.4"/>
		</g>
	</g>
	<g>
		<g>
			<line class="st1" x1="0" y1="544.9" x2="6" y2="544.9"/>
			<line class="st2" x1="10" y1="544.9" x2="1072" y2="544.9"/>
			<line class="st1" x1="1074" y1="544.9" x2="1080" y2="544.9"/>
		</g>
	</g>
	<g>
		<g>
			<line class="st1" x1="0" y1="564.3" x2="6" y2="564.3"/>
			<line class="st2" x1="10" y1="564.3" x2="1072" y2="564.3"/>
			<line class="st1" x1="1074" y1="564.3" x2="1080" y2="564.3"/>
		</g>
	</g>
	<g>
		<g>
			<line class="st1" x1="0" y1="583.8" x2="6" y2="583.8"/>
			<line class="st2" x1="10" y1="583.8" x2="1072" y2="583.8"/>
			<line class="st1" x1="1074" y1="583.8" x2="1080" y2="583.8"/>
		</g>
	</g>
	<g>
		<g>
			<line class="st1" x1="0" y1="603.2" x2="6" y2="603.2"/>
			<line class="st2" x1="10" y1="603.2" x2="1072" y2="603.2"/>
			<line class="st1" x1="1074" y1="603.2" x2="1080" y2="603.2"/>
		</g>
	</g>
	<g>
		<g>
			<line class="st1" x1="0" y1="622.7" x2="6" y2="622.7"/>
			<line class="st2" x1="10" y1="622.7" x2="1072" y2="622.7"/>
			<line class="st1" x1="1074" y1="622.7" x2="1080" y2="622.7"/>
		</g>
	</g>
	<g>
		<g>
			<line class="st1" x1="0" y1="642.2" x2="6" y2="642.2"/>
			<line class="st2" x1="10" y1="642.2" x2="1072" y2="642.2"/>
			<line class="st1" x1="1074" y1="642.2" x2="1080" y2="642.2"/>
		</g>
	</g>
	<g>
		<g>
			<line class="st1" x1="0" y1="661.6" x2="6" y2="661.6"/>
			<line class="st2" x1="10" y1="661.6" x2="1072" y2="661.6"/>
			<line class="st1" x1="1074" y1="661.6" x2="1080" y2="661.6"/>
		</g>
	</g>
	<g>
		<g>
			<line class="st1" x1="0" y1="681.1" x2="6" y2="681.1"/>
			<line class="st2" x1="10" y1="681.1" x2="1072" y2="681.1"/>
			<line class="st1" x1="1074" y1="681.1" x2="1080" y2="681.1"/>
		</g>
	</g>
	<g>
		<g>
			<line class="st1" x1="0" y1="700.5" x2="6" y2="700.5"/>
			<line class="st2" x1="10" y1="700.5" x2="1072" y2="700.5"/>
			<line class="st1" x1="1074" y1="700.5" x2="1080" y2="700.5"/>
		</g>
	</g>
	<g>
		<g>
			<line class="st1" x1="1060.4" y1="720" x2="1060.4" y2="714"/>
			<line class="st3" x1="1060.4" y1="710" x2="1060.4" y2="8"/>
			<line class="st1" x1="1060.4" y1="6" x2="1060.4" y2="0"/>
		</g>
	</g>
	<g>
		<g>
			<line class="st1" x1="1040.7" y1="720" x2="1040.7" y2="714"/>
			<line class="st3" x1="1040.7" y1="710" x2="1040.7" y2="8"/>
			<line class="st1" x1="1040.7" y1="6" x2="1040.7" y2="0"/>
		</g>
	</g>
	<g>
		<g>
			<line class="st1" x1="1021.1" y1="720" x2="1021.1" y2="714"/>
			<line class="st3" x1="1021.1" y1="710" x2="1021.1" y2="8"/>
			<line class="st1" x1="1021.1" y1="6" x2="1021.1" y2="0"/>
		</g>
	</g>
	<g>
		<g>
			<line class="st1" x1="1001.5" y1="720" x2="1001.5" y2="714"/>
			<line class="st3" x1="1001.5" y1="710" x2="1001.5" y2="8"/>
			<line class="st1" x1="1001.5" y1="6" x2="1001.5" y2="0"/>
		</g>
	</g>
	<g>
		<g>
			<line class="st1" x1="981.8" y1="720" x2="981.8" y2="714"/>
			<line class="st3" x1="981.8" y1="710" x2="981.8" y2="8"/>
			<line class="st1" x1="981.8" y1="6" x2="981.8" y2="0"/>
		</g>
	</g>
	<g>
		<g>
			<line class="st1" x1="962.2" y1="720" x2="962.2" y2="714"/>
			<line class="st3" x1="962.2" y1="710" x2="962.2" y2="8"/>
			<line class="st1" x1="962.2" y1="6" x2="962.2" y2="0"/>
		</g>
	</g>
	<g>
		<g>
			<line class="st1" x1="942.5" y1="720" x2="942.5" y2="714"/>
			<line class="st3" x1="942.5" y1="710" x2="942.5" y2="8"/>
			<line class="st1" x1="942.5" y1="6" x2="942.5" y2="0"/>
		</g>
	</g>
	<g>
		<g>
			<line class="st1" x1="922.9" y1="720" x2="922.9" y2="714"/>
			<line class="st3" x1="922.9" y1="710" x2="922.9" y2="8"/>
			<line class="st1" x1="922.9" y1="6" x2="922.9" y2="0"/>
		</g>
	</g>
	<g>
		<g>
			<line class="st1" x1="903.3" y1="720" x2="903.3" y2="714"/>
			<line class="st3" x1="903.3" y1="710" x2="903.3" y2="8"/>
			<line class="st1" x1="903.3" y1="6" x2="903.3" y2="0"/>
		</g>
	</g>
	<g>
		<g>
			<line class="st1" x1="883.6" y1="720" x2="883.6" y2="714"/>
			<line class="st3" x1="883.6" y1="710" x2="883.6" y2="8"/>
			<line class="st1" x1="883.6" y1="6" x2="883.6" y2="0"/>
		</g>
	</g>
	<g>
		<g>
			<line class="st1" x1="864" y1="720" x2="864" y2="714"/>
			<line class="st3" x1="864" y1="710" x2="864" y2="8"/>
			<line class="st1" x1="864" y1="6" x2="864" y2="0"/>
		</g>
	</g>
	<g>
		<g>
			<line class="st1" x1="844.4" y1="720" x2="844.4" y2="714"/>
			<line class="st3" x1="844.4" y1="710" x2="844.4" y2="8"/>
			<line class="st1" x1="844.4" y1="6" x2="844.4" y2="0"/>
		</g>
	</g>
	<g>
		<g>
			<line class="st1" x1="824.7" y1="720" x2="824.7" y2="714"/>
			<line class="st3" x1="824.7" y1="710" x2="824.7" y2="8"/>
			<line class="st1" x1="824.7" y1="6" x2="824.7" y2="0"/>
		</g>
	</g>
	<g>
		<g>
			<line class="st1" x1="805.1" y1="720" x2="805.1" y2="714"/>
			<line class="st3" x1="805.1" y1="710" x2="805.1" y2="8"/>
			<line class="st1" x1="805.1" y1="6" x2="805.1" y2="0"/>
		</g>
	</g>
	<g>
		<g>
			<line class="st1" x1="785.5" y1="720" x2="785.5" y2="714"/>
			<line class="st3" x1="785.5" y1="710" x2="785.5" y2="8"/>
			<line class="st1" x1="785.5" y1="6" x2="785.5" y2="0"/>
		</g>
	</g>
	<g>
		<g>
			<line class="st1" x1="765.8" y1="720" x2="765.8" y2="714"/>
			<line class="st3" x1="765.8" y1="710" x2="765.8" y2="8"/>
			<line class="st1" x1="765.8" y1="6" x2="765.8" y2="0"/>
		</g>
	</g>
	<g>
		<g>
			<line class="st1" x1="746.2" y1="720" x2="746.2" y2="714"/>
			<line class="st3" x1="746.2" y1="710" x2="746.2" y2="8"/>
			<line class="st1" x1="746.2" y1="6" x2="746.2" y2="0"/>
		</g>
	</g>
	<g>
		<g>
			<line class="st1" x1="726.5" y1="720" x2="726.5" y2="714"/>
			<line class="st3" x1="726.5" y1="710" x2="726.5" y2="8"/>
			<line class="st1" x1="726.5" y1="6" x2="726.5" y2="0"/>
		</g>
	</g>
	<g>
		<g>
			<line class="st1" x1="706.9" y1="720" x2="706.9" y2="714"/>
			<line class="st3" x1="706.9" y1="710" x2="706.9" y2="8"/>
			<line class="st1" x1="706.9" y1="6" x2="706.9" y2="0"/>
		</g>
	</g>
	<g>
		<g>
			<line class="st1" x1="687.3" y1="720" x2="687.3" y2="714"/>
			<line class="st3" x1="687.3" y1="710" x2="687.3" y2="8"/>
			<line class="st1" x1="687.3" y1="6" x2="687.3" y2="0"/>
		</g>
	</g>
	<g>
		<g>
			<line class="st1" x1="667.6" y1="720" x2="667.6" y2="714"/>
			<line class="st3" x1="667.6" y1="710" x2="667.6" y2="8"/>
			<line class="st1" x1="667.6" y1="6" x2="667.6" y2="0"/>
		</g>
	</g>
	<g>
		<g>
			<line class="st1" x1="648" y1="720" x2="648" y2="714"/>
			<line class="st3" x1="648" y1="710" x2="648" y2="8"/>
			<line class="st1" x1="648" y1="6" x2="648" y2="0"/>
		</g>
	</g>
	<g>
		<g>
			<line class="st1" x1="628.4" y1="720" x2="628.4" y2="714"/>
			<line class="st3" x1="628.4" y1="710" x2="628.4" y2="8"/>
			<line class="st1" x1="628.4" y1="6" x2="628.4" y2="0"/>
		</g>
	</g>
	<g>
		<g>
			<line class="st1" x1="608.7" y1="720" x2="608.7" y2="714"/>
			<line class="st3" x1="608.7" y1="710" x2="608.7" y2="8"/>
			<line class="st1" x1="608.7" y1="6" x2="608.7" y2="0"/>
		</g>
	</g>
	<g>
		<g>
			<line class="st1" x1="589.1" y1="720" x2="589.1" y2="714"/>
			<line class="st3" x1="589.1" y1="710" x2="589.1" y2="8"/>
			<line class="st1" x1="589.1" y1="6" x2="589.1" y2="0"/>
		</g>
	</g>
	<g>
		<g>
			<line class="st1" x1="569.5" y1="720" x2="569.5" y2="714"/>
			<line class="st3" x1="569.5" y1="710" x2="569.5" y2="8"/>
			<line class="st1" x1="569.5" y1="6" x2="569.5" y2="0"/>
		</g>
	</g>
	<g>
		<g>
			<line class="st1" x1="549.8" y1="720" x2="549.8" y2="714"/>
			<line class="st3" x1="549.8" y1="710" x2="549.8" y2="8"/>
			<line class="st1" x1="549.8" y1="6" x2="549.8" y2="0"/>
		</g>
	</g>
	<g>
		<g>
			<line class="st1" x1="530.2" y1="720" x2="530.2" y2="714"/>
			<line class="st3" x1="530.2" y1="710" x2="530.2" y2="8"/>
			<line class="st1" x1="530.2" y1="6" x2="530.2" y2="0"/>
		</g>
	</g>
	<g>
		<g>
			<line class="st1" x1="510.5" y1="720" x2="510.5" y2="714"/>
			<line class="st3" x1="510.5" y1="710" x2="510.5" y2="8"/>
			<line class="st1" x1="510.5" y1="6" x2="510.5" y2="0"/>
		</g>
	</g>
	<g>
		<g>
			<line class="st1" x1="490.9" y1="720" x2="490.9" y2="714"/>
			<line class="st3" x1="490.9" y1="710" x2="490.9" y2="8"/>
			<line class="st1" x1="490.9" y1="6" x2="490.9" y2="0"/>
		</g>
	</g>
	<g>
		<g>
			<line class="st1" x1="471.3" y1="720" x2="471.3" y2="714"/>
			<line class="st3" x1="471.3" y1="710" x2="471.3" y2="8"/>
			<line class="st1" x1="471.3" y1="6" x2="471.3" y2="0"/>
		</g>
	</g>
	<g>
		<g>
			<line class="st1" x1="451.6" y1="720" x2="451.6" y2="714"/>
			<line class="st3" x1="451.6" y1="710" x2="451.6" y2="8"/>
			<line class="st1" x1="451.6" y1="6" x2="451.6" y2="0"/>
		</g>
	</g>
	<g>
		<g>
			<line class="st1" x1="432" y1="720" x2="432" y2="714"/>
			<line class="st3" x1="432" y1="710" x2="432" y2="8"/>
			<line class="st1" x1="432" y1="6" x2="432" y2="0"/>
		</g>
	</g>
	<g>
		<g>
			<line class="st1" x1="412.4" y1="720" x2="412.4" y2="714"/>
			<line class="st3" x1="412.4" y1="710" x2="412.4" y2="8"/>
			<line class="st1" x1="412.4" y1="6" x2="412.4" y2="0"/>
		</g>
	</g>
	<g>
		<g>
			<line class="st1" x1="392.7" y1="720" x2="392.7" y2="714"/>
			<line class="st3" x1="392.7" y1="710" x2="392.7" y2="8"/>
			<line class="st1" x1="392.7" y1="6" x2="392.7" y2="0"/>
		</g>
	</g>
	<g>
		<g>
			<line class="st1" x1="373.1" y1="720" x2="373.1" y2="714"/>
			<line class="st3" x1="373.1" y1="710" x2="373.1" y2="8"/>
			<line class="st1" x1="373.1" y1="6" x2="373.1" y2="0"/>
		</g>
	</g>
	<g>
		<g>
			<line class="st1" x1="353.5" y1="720" x2="353.5" y2="714"/>
			<line class="st3" x1="353.5" y1="710" x2="353.5" y2="8"/>
			<line class="st1" x1="353.5" y1="6" x2="353.5" y2="0"/>
		</g>
	</g>
	<g>
		<g>
			<line class="st1" x1="333.8" y1="720" x2="333.8" y2="714"/>
			<line class="st3" x1="333.8" y1="710" x2="333.8" y2="8"/>
			<line class="st1" x1="333.8" y1="6" x2="333.8" y2="0"/>
		</g>
	</g>
	<g>
		<g>
			<line class="st1" x1="314.2" y1="720" x2="314.2" y2="714"/>
			<line class="st3" x1="314.2" y1="710" x2="314.2" y2="8"/>
			<line class="st1" x1="314.2" y1="6" x2="314.2" y2="0"/>
		</g>
	</g>
	<g>
		<g>
			<line class="st1" x1="294.5" y1="720" x2="294.5" y2="714"/>
			<line class="st3" x1="294.5" y1="710" x2="294.5" y2="8"/>
			<line class="st1" x1="294.5" y1="6" x2="294.5" y2="0"/>
		</g>
	</g>
	<g>
		<g>
			<line class="st1" x1="274.9" y1="720" x2="274.9" y2="714"/>
			<line class="st3" x1="274.9" y1="710" x2="274.9" y2="8"/>
			<line class="st1" x1="274.9" y1="6" x2="274.9" y2="0"/>
		</g>
	</g>
	<g>
		<g>
			<line class="st1" x1="255.3" y1="720" x2="255.3" y2="714"/>
			<line class="st3" x1="255.3" y1="710" x2="255.3" y2="8"/>
			<line class="st1" x1="255.3" y1="6" x2="255.3" y2="0"/>
		</g>
	</g>
	<g>
		<g>
			<line class="st1" x1="235.6" y1="720" x2="235.6" y2="714"/>
			<line class="st3" x1="235.6" y1="710" x2="235.6" y2="8"/>
			<line class="st1" x1="235.6" y1="6" x2="235.6" y2="0"/>
		</g>
	</g>
	<g>
		<g>
			<line class="st1" x1="216" y1="720" x2="216" y2="714"/>
			<line class="st3" x1="216" y1="710" x2="216" y2="8"/>
			<line class="st1" x1="216" y1="6" x2="216" y2="0"/>
		</g>
	</g>
	<g>
		<g>
			<line class="st1" x1="196.4" y1="720" x2="196.4" y2="714"/>
			<line class="st3" x1="196.4" y1="710" x2="196.4" y2="8"/>
			<line class="st1" x1="196.4" y1="6" x2="196.4" y2="0"/>
		</g>
	</g>
	<g>
		<g>
			<line class="st1" x1="176.7" y1="720" x2="176.7" y2="714"/>
			<line class="st3" x1="176.7" y1="710" x2="176.7" y2="8"/>
			<line class="st1" x1="176.7" y1="6" x2="176.7" y2="0"/>
		</g>
	</g>
	<g>
		<g>
			<line class="st1" x1="157.1" y1="720" x2="157.1" y2="714"/>
			<line class="st3" x1="157.1" y1="710" x2="157.1" y2="8"/>
			<line class="st1" x1="157.1" y1="6" x2="157.1" y2="0"/>
		</g>
	</g>
	<g>
		<g>
			<line class="st1" x1="137.5" y1="720" x2="137.5" y2="714"/>
			<line class="st3" x1="137.5" y1="710" x2="137.5" y2="8"/>
			<line class="st1" x1="137.5" y1="6" x2="137.5" y2="0"/>
		</g>
	</g>
	<g>
		<g>
			<line class="st1" x1="117.8" y1="720" x2="117.8" y2="714"/>
			<line class="st3" x1="117.8" y1="710" x2="117.8" y2="8"/>
			<line class="st1" x1="117.8" y1="6" x2="117.8" y2="0"/>
		</g>
	</g>
	<g>
		<g>
			<line class="st1" x1="98.2" y1="720" x2="98.2" y2="714"/>
			<line class="st3" x1="98.2" y1="710" x2="98.2" y2="8"/>
			<line class="st1" x1="98.2" y1="6" x2="98.2" y2="0"/>
		</g>
	</g>
	<g>
		<g>
			<line class="st1" x1="78.5" y1="720" x2="78.5" y2="714"/>
			<line class="st3" x1="78.5" y1="710" x2="78.5" y2="8"/>
			<line class="st1" x1="78.5" y1="6" x2="78.5" y2="0"/>
		</g>
	</g>
	<g>
		<g>
			<line class="st1" x1="58.9" y1="720" x2="58.9" y2="714"/>
			<line class="st3" x1="58.9" y1="710" x2="58.9" y2="8"/>
			<line class="st1" x1="58.9" y1="6" x2="58.9" y2="0"/>
		</g>
	</g>
	<g>
		<g>
			<line class="st1" x1="39.3" y1="720" x2="39.3" y2="714"/>
			<line class="st3" x1="39.3" y1="710" x2="39.3" y2="8"/>
			<line class="st1" x1="39.3" y1="6" x2="39.3" y2="0"/>
		</g>
	</g>
	<g>
		<g>
			<line class="st1" x1="19.6" y1="720" x2="19.6" y2="714"/>
			<line class="st3" x1="19.6" y1="710" x2="19.6" y2="8"/>
			<line class="st1" x1="19.6" y1="6" x2="19.6" y2="0"/>
		</g>
	</g>
</g>
</svg>
